<?xml version="1.0" encoding="UTF-8"?>
<ellipse cx="50" cy="25" rx="50" ry="25" fill="blue" />
<text x="50%" y="50%" text-anchor="middle" fill="white" font-size="20px" dy=".3em">F</text>
<svg version="1.1" xmlns="http://www.w3.org/2000/svg" width="500" height="500">
<path d="M0 0 C25.08 0 50.16 0 76 0 C76 7.26 76 14.52 76 22 C71.38 22 66.76 22 62 22 C62 19.36 62 16.72 62 14 C50.78 14 39.56 14 28 14 C28 24.89 28 35.78 28 47 C38.89 47 49.78 47 61 47 C61 51.62 61 56.24 61 61 C50.11 61 39.22 61 28 61 C28 71.56 28 82.12 28 93 C31.96 93 35.92 93 40 93 C40 97.29 40 101.58 40 106 C26.8 106 13.6 106 0 106 C0 101.71 0 97.42 0 93 C3.3 93 6.6 93 10 93 C10 66.93 10 40.86 10 14 C6.7 14 3.4 14 0 14 C0 9.38 0 4.76 0 0 Z " fill="#000000" transform="translate(189,222)"/>
<path d="M0 0 C0.9384375 0.71414062 1.876875 1.42828125 2.84375 2.1640625 C7.92667665 6.12935769 12.54947351 10.34247228 17 15 C17.825 15.825 18.65 16.65 19.5 17.5 C20.325 18.325 21.15 19.15 22 20 C22.48726563 20.44085938 22.97453125 20.88171875 23.4765625 21.3359375 C50.85749393 46.90012467 67.76027021 90.46409376 69.12451172 127.36816406 C70.13325477 175.77529955 58.1111613 222.20764311 23.83984375 258.1015625 C23.3794873 258.57110352 22.91913086 259.04064453 22.44482422 259.52441406 C20.90816685 261.09378837 19.39400583 262.68325912 17.87890625 264.2734375 C-12.20371382 295.48859044 -54.96662678 314.16092134 -98.328125 315.203125 C-149.41968312 315.7809922 -193.40197838 299.61100018 -230.40917969 263.92724609 C-238.58212751 255.89657744 -245.73816222 247.59586401 -252 238 C-252.39622559 237.39478516 -252.79245117 236.78957031 -253.20068359 236.16601562 C-277.71075182 198.18499595 -287.72965553 150.19001449 -278.59521484 105.62792969 C-275.24901956 90.85416184 -270.7224635 76.58345933 -264 63 C-263.70544922 62.38930664 -263.41089844 61.77861328 -263.10742188 61.14941406 C-256.35114224 47.25015629 -247.58809455 34.29352381 -236.9375 23.078125 C-234.9234705 20.97507132 -234.9234705 20.97507132 -232.984375 18.4453125 C-231.18880831 16.23266536 -229.41723625 14.46088194 -227.25 12.625 C-224.19084501 10.02244085 -224.19084501 10.02244085 -221.1953125 7.34765625 C-200.21954371 -11.78260498 -174.17271441 -23.70317885 -147 -31 C-146.31615234 -31.1870752 -145.63230469 -31.37415039 -144.92773438 -31.56689453 C-95.75924406 -44.53189967 -39.76957942 -30.41782188 0 0 Z M-235.625 25.75 C-258.3368772 50.61431001 -271.70258523 83.07485271 -277 116 C-277.26369385 117.63557861 -277.26369385 117.63557861 -277.53271484 119.30419922 C-283.18564643 164.01374904 -270.03449791 209.00655767 -242.97265625 244.671875 C-238.25259306 250.6911239 -233.20350978 256.39622024 -228 262 C-227.19175781 262.88945313 -227.19175781 262.88945313 -226.3671875 263.796875 C-216.83302468 273.85805185 -204.89333798 281.99372098 -193 289 C-192.31373535 289.40605469 -191.6274707 289.81210937 -190.92041016 290.23046875 C-172.03604744 301.2171197 -151.52946094 307.61462953 -130 311 C-128.90888916 311.1743457 -127.81777832 311.34869141 -126.69360352 311.52832031 C-82.77522254 317.13677507 -36.77928995 304.45055669 -1.69848633 277.6027832 C19.82212203 260.67697708 36.39433013 240.27020799 49 216 C49.46792969 215.10667969 49.93585938 214.21335937 50.41796875 213.29296875 C57.93658576 197.84208913 62.27994141 180.89411387 65 164 C65.19335938 162.81664062 65.38671875 161.63328125 65.5859375 160.4140625 C70.85207934 115.42918698 58.00127376 69.67173017 30.1875 34 C13.10574646 13.19615231 -6.1399613 -2.50124726 -30 -15 C-30.89460937 -15.46921875 -31.78921875 -15.9384375 -32.7109375 -16.421875 C-46.19587413 -22.97291677 -61.25355305 -27.44614606 -76 -30 C-77.21393433 -30.25052124 -77.21393433 -30.25052124 -78.45239258 -30.50610352 C-87.50306789 -32.24682657 -96.38265515 -32.35799829 -105.5625 -32.3125 C-106.3619101 -32.31001251 -107.16132019 -32.30752502 -107.98495483 -32.30496216 C-157.77574298 -32.06516714 -201.51017121 -10.06813693 -235.625 25.75 Z " fill="#020202" transform="translate(356,110)"/>
<path d="M0 0 C6.97019176 -0.07494417 13.94014171 -0.12897282 20.91064453 -0.16479492 C23.27494398 -0.1797507 25.63921634 -0.20012268 28.00341797 -0.22631836 C66.01608642 -0.63652701 66.01608642 -0.63652701 77.765625 9.52734375 C84.88783971 16.87428854 85.45324107 26.06765741 85.3515625 35.80761719 C85.08760692 44.02323466 83.46421856 50.37303857 77.734375 56.5 C67.92919336 64.98015709 54.27132626 65.20301827 42 65 C42 61.7 42 58.4 42 55 C31.44 55 20.88 55 10 55 C10 41.47 10 27.94 10 14 C6.7 14 3.4 14 0 14 C0 9.38 0 4.76 0 0 Z M28 14 C28 26.54 28 39.08 28 52 C33.135625 52.0928125 33.135625 52.0928125 38.375 52.1875 C39.96127197 52.22846802 39.96127197 52.22846802 41.57958984 52.27026367 C49.3627884 52.33742246 56.69467586 51.54785402 63 46.6875 C67.08504239 41.19822429 67.71053274 35.65419545 67 29 C66.01986161 24.40405695 64.54006575 21.57774476 61.3125 18.125 C54.1489203 13.52949604 46.74081862 13.73551341 38.5 13.875 C33.3025 13.936875 33.3025 13.936875 28 14 Z " fill="#000000" transform="translate(225,165)"/>
<path d="M0 0 C3.08413653 2.64895162 4.7343659 5.97536182 6.625 9.5 C10.40172958 16.30850388 14.84820184 22.15010226 20 28 C20.72058594 28.85335938 21.44117188 29.70671875 22.18359375 30.5859375 C27.56030394 36.81563737 33.49874437 41.96912181 40 47 C38.27687791 51.66209202 35.95555839 55.03332953 33 59 C27.62972321 57.48344214 24.24171163 53.88295259 20.3125 50.125 C19.60206543 49.44880615 18.89163086 48.7726123 18.15966797 48.07592773 C8.06632896 38.33937759 0.15181648 27.75594174 -6.97216797 15.70361328 C-7.88106655 14.19713007 -8.85968363 12.73319347 -9.84765625 11.27734375 C-11 9 -11 9 -11.00390625 6.859375 C-9.54243839 4.15253181 -7.70284322 3.51015641 -4.9375 2.25 C-4.01839844 1.82203125 -3.09929687 1.3940625 -2.15234375 0.953125 C-1.44207031 0.63859375 -0.73179687 0.3240625 0 0 Z " fill="#010101" transform="translate(132,306)"/>
<path d="M0 0 C22.0045761 3.14351087 42.40234076 20.29275832 58 35 C57.06409496 36.1055189 56.12620142 37.20935453 55.1875 38.3125 C54.66542969 38.92738281 54.14335937 39.54226562 53.60546875 40.17578125 C52.12827531 41.85424679 50.59960869 43.43882034 49 45 C45.13733475 43.38135932 42.3310304 40.75315047 39.25 38 C28.37588402 28.57107903 16.22638082 21.59719747 3 16 C2.22140625 15.66097656 1.4428125 15.32195312 0.640625 14.97265625 C-0.90125682 14.30347954 -2.44953145 13.64903335 -4 13 C-3.27991594 8.39146203 -1.68704061 4.32762591 0 0 Z " fill="#000000" transform="translate(295,114)"/>
<path d="M0 0 C4.62 0 9.24 0 14 0 C14 2.64 14 5.28 14 8 C15.32 8 16.64 8 18 8 C18 11.96 18 15.92 18 20 C20.31 20 22.62 20 25 20 C25 24.29 25 28.58 25 33 C22.69 33 20.38 33 18 33 C18 31.68 18 30.36 18 29 C9.75 29 1.5 29 -7 29 C-7 26.03 -7 23.06 -7 20 C-4.69 20 -2.38 20 0 20 C0 13.4 0 6.8 0 0 Z " fill="#000000" transform="translate(235,238)"/>
<path d="M0 0 C0.56332031 0.25007813 1.12664062 0.50015625 1.70703125 0.7578125 C1.13127461 4.11031951 0.11396862 5.69599879 -2.35546875 8.0078125 C-2.90332031 8.52859375 -3.45117188 9.049375 -4.015625 9.5859375 C-4.43714844 9.97265625 -4.85867187 10.359375 -5.29296875 10.7578125 C-4.1188256 13.63980023 -2.97093303 15.06451319 -0.66796875 17.2578125 C1.70703125 19.7578125 1.70703125 19.7578125 1.70703125 23.7578125 C-2.83656377 23.27273118 -4.95242613 21.69172683 -8.16796875 18.5078125 C-8.96976563 17.73953125 -9.7715625 16.97125 -10.59765625 16.1796875 C-12.29296875 13.7578125 -12.29296875 13.7578125 -12.3203125 11.265625 C-11.03406652 8.12581542 -9.3788251 6.27724355 -6.98046875 3.8828125 C-5.81064453 2.68011719 -5.81064453 2.68011719 -4.6171875 1.453125 C-2.29296875 -0.2421875 -2.29296875 -0.2421875 0 0 Z " fill="#383838" transform="translate(250.29296875,307.2421875)"/>
<path d="M0 0 C3.98874822 0.55017217 5.98075809 2.48687866 8.8125 5.25 C9.62332031 6.01828125 10.43414062 6.7865625 11.26953125 7.578125 C13 10 13 10 13.03125 12.49609375 C11.74294362 15.62414067 10.09234241 17.43914489 7.6875 19.8125 C6.51767578 20.99779297 6.51767578 20.99779297 5.32421875 22.20703125 C3 24 3 24 -1 24 C-0.68232368 18.59950264 2.19996327 16.47662935 6 13 C4.80995883 10.07898986 3.67807805 8.70053772 1.3125 6.5 C0.549375 5.675 -0.21375 4.85 -1 4 C-0.8125 1.6875 -0.8125 1.6875 0 0 Z " fill="#454545" transform="translate(273,307)"/>
<path d="M0 0 C0.99 0 1.98 0 3 0 C4.17040205 3.51120614 3.7737839 5.09820381 3.0390625 8.69140625 C2.81476563 9.80064453 2.59046875 10.90988281 2.359375 12.05273438 C2.11703125 13.21095703 1.8746875 14.36917969 1.625 15.5625 C1.39039063 16.72458984 1.15578125 17.88667969 0.9140625 19.08398438 C-0.85040794 27.70081589 -0.85040794 27.70081589 -2 30 C-3.32 30 -4.64 30 -6 30 C-5.69008466 22.96492177 -4.52561294 16.23209989 -3 9.375 C-2.82178711 8.56885254 -2.64357422 7.76270508 -2.45996094 6.93212891 C-1.13331283 1.13331283 -1.13331283 1.13331283 0 0 Z " fill="#3C3C3C" transform="translate(263,304)"/>
<path d="M0 0 C0.99 0.33 1.98 0.66 3 1 C2.835 1.94875 2.67 2.8975 2.5 3.875 C1.9473365 6.80168901 1.9473365 6.80168901 2 9 C3.32 8.67 4.64 8.34 6 8 C6.33 9.32 6.66 10.64 7 12 C6.45730469 12.19335938 5.91460937 12.38671875 5.35546875 12.5859375 C4.64003906 12.84632813 3.92460937 13.10671875 3.1875 13.375 C2.47980469 13.63023437 1.77210938 13.88546875 1.04296875 14.1484375 C-1.24773359 15.0265769 -1.24773359 15.0265769 -4 17 C-5.1875 15.375 -5.1875 15.375 -6 13 C-4.625 9.75 -4.625 9.75 -3 7 C-3.66 7 -4.32 7 -5 7 C-5.33 7.99 -5.66 8.98 -6 10 C-6.66 10 -7.32 10 -8 10 C-8.33 8.35 -8.66 6.7 -9 5 C-6.03 4.01 -3.06 3.02 0 2 C0 1.34 0 0.68 0 0 Z " fill="#020202" transform="translate(370,182)"/>
<path d="M0 0 C0.54269531 0.34933594 1.08539063 0.69867188 1.64453125 1.05859375 C2.35996094 1.51363281 3.07539063 1.96867188 3.8125 2.4375 C4.87404297 3.11619141 4.87404297 3.11619141 5.95703125 3.80859375 C8.08134552 5.14086339 8.08134552 5.14086339 11 6 C10.67 7.32 10.34 8.64 10 10 C7.69 10.33 5.38 10.66 3 11 C4.32 12.32 5.64 13.64 7 15 C6.67 15.66 6.34 16.32 6 17 C5.505 16.731875 5.01 16.46375 4.5 16.1875 C1.0763054 14.56124507 -2.44132285 13.30484829 -6 12 C-5.67 10.68 -5.34 9.36 -5 8 C-2.69 7.34 -0.38 6.68 2 6 C0.68 5.67 -0.64 5.34 -2 5 C-1.34 3.35 -0.68 1.7 0 0 Z " fill="#030303" transform="translate(127,174)"/>
<path d="M0 0 C0.66 0 1.32 0 2 0 C2 0.66 2 1.32 2 2 C5.3 2 8.6 2 12 2 C11.75 4.375 11.75 4.375 11 7 C8.9375 8.3125 8.9375 8.3125 7 9 C8.32 9.66 9.64 10.32 11 11 C11 12.32 11 13.64 11 15 C10.22914062 14.855625 9.45828125 14.71125 8.6640625 14.5625 C7.66117188 14.376875 6.65828125 14.19125 5.625 14 C4.12839844 13.7215625 4.12839844 13.7215625 2.6015625 13.4375 C0.11096455 12.94472017 0.11096455 12.94472017 -2 13 C-2 11.68 -2 10.36 -2 9 C-0.02 8.01 1.96 7.02 4 6 C2.35 5.67 0.7 5.34 -1 5 C-0.67 3.35 -0.34 1.7 0 0 Z " fill="#020202" transform="translate(109,220)"/>
<path d="M0 0 C0.68707031 0.0721875 1.37414062 0.144375 2.08203125 0.21875 C2.98308594 0.3115625 3.88414062 0.404375 4.8125 0.5 C5.70582031 0.5928125 6.59914063 0.685625 7.51953125 0.78125 C10.08305099 1.04392401 10.08305099 1.04392401 13 1 C12.60196439 3.88575819 12.20990931 4.82189513 9.9375 6.75 C9.298125 7.1625 8.65875 7.575 8 8 C9.32 8.33 10.64 8.66 12 9 C12 10.32 12 11.64 12 13 C8.04 13 4.08 13 0 13 C0 11.35 0 9.7 0 8 C2.5 6.1875 2.5 6.1875 5 5 C3.35 5 1.7 5 0 5 C0 3.35 0 1.7 0 0 Z " fill="#030303" transform="translate(377,248)"/>
<path d="M0 0 C2.47034781 1.60238777 3.81388662 2.97601957 5.3125 5.5 C5.3125 6.16 5.3125 6.82 5.3125 7.5 C3.5546875 8.44401042 1.796875 9.38802083 0.0390625 10.33203125 C-1.99252365 11.54763493 -1.99252365 11.54763493 -3.6875 14.5 C-4.3475 14.5 -5.0075 14.5 -5.6875 14.5 C-8.02886608 11.62346453 -9.63305257 9.64339612 -9.8125 5.875 C-7.83821009 1.70705463 -4.68639024 -0.87188656 0 0 Z M-3.6875 3.5 C-5.5229799 4.83378575 -5.5229799 4.83378575 -6.6875 6.5 C-6.3575 7.49 -6.0275 8.48 -5.6875 9.5 C-2.80312221 8.20700306 -0.81530579 6.84058637 1.3125 4.5 C-1.03283951 3.73043864 -1.03283951 3.73043864 -3.6875 3.5 Z " fill="#020202" transform="translate(359.6875,164.5)"/>
<path d="M0 0 C2.9719385 1.12451727 5.33440687 2.22293791 8 4 C7.56179109 8.55737263 7.14958831 11.57653445 4 15 C0.26512223 14.5020163 -1.81237635 14.12508244 -5 12 C-5 11.01 -5 10.02 -5 9 C-4.34 9 -3.68 9 -3 9 C-2.01 6.03 -1.02 3.06 0 0 Z M2 4 C0.515 7.465 0.515 7.465 -1 11 C0.32 11 1.64 11 3 11 C5.2773501 8.18490007 5.2773501 8.18490007 5 5 C4.01 4.67 3.02 4.34 2 4 Z " fill="#020202" transform="translate(183,359)"/>
<path d="M0 0 C0.66 0.33 1.32 0.66 2 1 C1.95875 2.0725 1.9175 3.145 1.875 4.25 C1.9885825 7.65747485 2.21273364 9.20739631 4 12 C-0.75 11.25 -0.75 11.25 -3 9 C-3 10.32 -3 11.64 -3 13 C-4.32 13 -5.64 13 -7 13 C-7 9.7 -7 6.4 -7 3 C-7.66 3 -8.32 3 -9 3 C-9 2.34 -9 1.68 -9 1 C-6.01405576 -0.49297212 -3.29146376 -0.11755228 0 0 Z M-5 3 C-4.67 3.99 -4.34 4.98 -4 6 C-3.01 5.67 -2.02 5.34 -1 5 C-1 4.34 -1 3.68 -1 3 C-2.32 3 -3.64 3 -5 3 Z " fill="#030303" transform="translate(234,107)"/>
<path d="M0 0 C2.375 0.8125 2.375 0.8125 3.375 2.8125 C5.025 2.8125 6.675 2.8125 8.375 2.8125 C8.045 3.8025 7.715 4.7925 7.375 5.8125 C5.725 6.1425 4.075 6.4725 2.375 6.8125 C2.375 7.4725 2.375 8.1325 2.375 8.8125 C3.695 8.8125 5.015 8.8125 6.375 8.8125 C6.045 10.1325 5.715 11.4525 5.375 12.8125 C2.93522281 12.24947449 0.62550967 11.55767329 -1.75 10.75 C-4.43791118 9.7091598 -4.43791118 9.7091598 -6.625 9.8125 C-6.025 3.4525 -6.025 3.4525 -4.375 0.8125 C-2.625 -0.1875 -2.625 -0.1875 0 0 Z M-1.625 2.8125 C-2.615 4.2975 -2.615 4.2975 -3.625 5.8125 C-2.305 6.1425 -0.985 6.4725 0.375 6.8125 C0.045 5.4925 -0.285 4.1725 -0.625 2.8125 C-0.955 2.8125 -1.285 2.8125 -1.625 2.8125 Z " fill="#030303" transform="translate(373.625,292.1875)"/>
<path d="M0 0 C0.33 1.65 0.66 3.3 1 5 C2.65 5 4.3 5 6 5 C6 5.99 6 6.98 6 8 C3.69 8.33 1.38 8.66 -1 9 C-0.34 9.33 0.32 9.66 1 10 C0.34 11.32 -0.32 12.64 -1 14 C-1.7425 13.21625 -2.485 12.4325 -3.25 11.625 C-5.54433318 9.43495469 -7.12158858 8.17268614 -10 7 C-9.60856977 4.72970466 -9.11258722 3.16591802 -7.8125 1.25 C-5.21312784 -0.54267046 -3.07660784 -0.20510719 0 0 Z M-4 2 C-4.99 3.485 -4.99 3.485 -6 5 C-4.68 5 -3.36 5 -2 5 C-2.33 4.01 -2.66 3.02 -3 2 C-3.33 2 -3.66 2 -4 2 Z " fill="#030303" transform="translate(345,340)"/>
<path d="M0 0 C3.125 0.375 3.125 0.375 5.5625 1.9375 C7.125 4.375 7.125 4.375 7.125 7.9375 C6.125 11.375 6.125 11.375 4.0625 13.3125 C3.423125 13.663125 2.78375 14.01375 2.125 14.375 C1.3825 13.59125 0.64 12.8075 -0.125 12 C-2.41933318 9.80995469 -3.99658858 8.54768614 -6.875 7.375 C-4.36778846 0.56971154 -4.36778846 0.56971154 0 0 Z M-1.875 3.375 C-1.875 4.365 -1.875 5.355 -1.875 6.375 C0.74351243 8.80213759 0.74351243 8.80213759 4.125 9.375 C3.795 7.725 3.465 6.075 3.125 4.375 C1.475 4.045 -0.175 3.715 -1.875 3.375 Z " fill="#010101" transform="translate(141.875,156.625)"/>
<path d="M0 0 C0.66 0.33 1.32 0.66 2 1 C1.1875 2.9375 1.1875 2.9375 0 5 C-0.99 5.33 -1.98 5.66 -3 6 C-3 6.66 -3 7.32 -3 8 C-1.35 7.67 0.3 7.34 2 7 C2 8.32 2 9.64 2 11 C0.453125 10.9690625 0.453125 10.9690625 -1.125 10.9375 C-4.55152969 10.99276661 -7.64572414 11.34550715 -11 12 C-11.05399736 10.54207116 -11.09279177 9.08357288 -11.125 7.625 C-11.15980469 6.40683594 -11.15980469 6.40683594 -11.1953125 5.1640625 C-11 3 -11 3 -9 1 C-6.66666667 1.33333333 -4.33333333 1.66666667 -2 2 C-1.34 1.34 -0.68 0.68 0 0 Z M-8 4 C-8.33 5.32 -8.66 6.64 -9 8 C-7.68 8 -6.36 8 -5 8 C-5.33 6.68 -5.66 5.36 -6 4 C-6.66 4 -7.32 4 -8 4 Z " fill="#040404" transform="translate(117,245)"/>
<path d="M0 0 C3.30242235 1.54801048 5.38948952 3.63507765 6.9375 6.9375 C7 8.9375 7 8.9375 5.9375 11.1875 C4 12.9375 4 12.9375 1.0625 13.5 C-2 12.9375 -2 12.9375 -4.375 10.75 C-6.12641232 7.71870944 -6.7195089 6.35516727 -6 2.9375 C-4.01952182 0.81555909 -2.94279007 -0.09196219 0 0 Z M-2 2.9375 C-2.33 4.2575 -2.66 5.5775 -3 6.9375 C-0.525 8.9175 -0.525 8.9175 2 10.9375 C2.66 9.9475 3.32 8.9575 4 7.9375 C2.3545622 6.24987149 0.68711423 4.5834651 -1 2.9375 C-1.33 2.9375 -1.66 2.9375 -2 2.9375 Z " fill="#020202" transform="translate(158,140.0625)"/>
<path d="M0 0 C0.66 0 1.32 0 2 0 C2 0.66 2 1.32 2 2 C3.32 2 4.64 2 6 2 C6 2.99 6 3.98 6 5 C4.02 5.99 4.02 5.99 2 7 C3.32 7 4.64 7 6 7 C6 7.99 6 8.98 6 10 C5.01 10 4.02 10 3 10 C3 10.99 3 11.98 3 13 C3.99 12.34 4.98 11.68 6 11 C6.99 11 7.98 11 9 11 C8.67 12.32 8.34 13.64 8 15 C5.36 15.33 2.72 15.66 0 16 C-0.33 13.03 -0.66 10.06 -1 7 C-1.66 7 -2.32 7 -3 7 C-3 6.01 -3 5.02 -3 4 C-2.34 4 -1.68 4 -1 4 C-0.67 2.68 -0.34 1.36 0 0 Z " fill="#020202" transform="translate(207,109)"/>
<path d="M0 0 C3.3 0.66 6.6 1.32 10 2 C8.85240511 6.59037956 7.70960782 7.33669182 4 10 C5.65 10.33 7.3 10.66 9 11 C8.67 12.32 8.34 13.64 8 15 C4.7 14.34 1.4 13.68 -2 13 C-0.86634892 8.46539569 0.64193374 7.09975347 4 4 C2.68 4 1.36 4 0 4 C0 2.68 0 1.36 0 0 Z " fill="#030303" transform="translate(271,107)"/>
<path d="M0 0 C1.19109375 0.14695312 1.19109375 0.14695312 2.40625 0.296875 C3.59734375 0.42835938 3.59734375 0.42835938 4.8125 0.5625 C6.90625 1.046875 6.90625 1.046875 8.90625 3.046875 C8.32932692 9.62379808 8.32932692 9.62379808 6.90625 11.046875 C2.67310233 11.28648713 -0.46111489 11.37176147 -4.09375 9.046875 C-4.21875 5.671875 -4.21875 5.671875 -4.09375 2.046875 C-2.09375 0.046875 -2.09375 0.046875 0 0 Z M-1.09375 3.046875 C-1.42375 4.036875 -1.75375 5.026875 -2.09375 6.046875 C1.13416555 8.1988187 2.19025809 8.24773943 5.90625 8.046875 C5.90625 6.726875 5.90625 5.406875 5.90625 4.046875 C3.59625 3.716875 1.28625 3.386875 -1.09375 3.046875 Z " fill="#030303" transform="translate(378.09375,271.953125)"/>
<path d="M0 0 C0.99 0.33 1.98 0.66 3 1 C2.67 1.99 2.34 2.98 2 4 C1.01 4 0.02 4 -1 4 C-0.34 4.66 0.32 5.32 1 6 C1.99 5.67 2.98 5.34 4 5 C4 5.99 4 6.98 4 8 C3.34 8 2.68 8 2 8 C2 8.99 2 9.98 2 11 C2.4125 10.484375 2.825 9.96875 3.25 9.4375 C4.11625 8.7259375 4.11625 8.7259375 5 8 C7.1875 8.3125 7.1875 8.3125 9 9 C9 9.66 9 10.32 9 11 C3.70588235 15 3.70588235 15 0 15 C-3 9.25 -3 9.25 -3 7 C-3.99 7 -4.98 7 -6 7 C-4.61990379 3.66476748 -3.15049348 1.81392049 0 0 Z " fill="#030303" transform="translate(325,352)"/>
<path d="M0 0 C3.03541315 5.22091062 3.03541315 5.22091062 2.875 8.75 C2 11 2 11 -1 13 C-3.5 13 -3.5 13 -6 12 C-8.12741341 8.87979366 -9.06553839 6.98307588 -8.8125 3.1875 C-7.24460893 -1.03374519 -3.97495539 -0.08641207 0 0 Z M-4 2 C-4.99 3.485 -4.99 3.485 -6 5 C-5.19838209 7.67145537 -5.19838209 7.67145537 -4 10 C-2.68 9.67 -1.36 9.34 0 9 C-0.65585189 5.39007621 -0.65585189 5.39007621 -2 2 C-2.66 2 -3.32 2 -4 2 Z " fill="#020202" transform="translate(291,372)"/>
<path d="M0 0 C6.75 0.875 6.75 0.875 9 2 C8.67 2.99 8.34 3.98 8 5 C6.68 4.67 5.36 4.34 4 4 C3.67 4.66 3.34 5.32 3 6 C3.99 6.33 4.98 6.66 6 7 C5.67 7.66 5.34 8.32 5 9 C3.68 8.67 2.36 8.34 1 8 C1 8.99 1 9.98 1 11 C2.65 11 4.3 11 6 11 C5.67 11.99 5.34 12.98 5 14 C0.545 13.01 0.545 13.01 -4 12 C-3.71125 11.319375 -3.4225 10.63875 -3.125 9.9375 C-1.87402645 6.67106907 -0.92552045 3.37153877 0 0 Z " fill="#020202" transform="translate(202,369)"/>
<path d="M0 0 C0.66 0 1.32 0 2 0 C2.66 2.97 3.32 5.94 4 9 C0.27569643 9.69289369 -3.21083746 10.11144596 -7 10 C-7 10.66 -7 11.32 -7 12 C-7.66 12 -8.32 12 -9 12 C-10.1577506 8.52674819 -10.06866652 5.63932552 -10 2 C-9.01 2 -8.02 2 -7 2 C-7 3.65 -7 5.3 -7 7 C-6.34 7 -5.68 7 -5 7 C-5 5.68 -5 4.36 -5 3 C-4.01 3.33 -3.02 3.66 -2 4 C-2 4.66 -2 5.32 -2 6 C-1.34 6 -0.68 6 0 6 C-0.2784375 4.7934375 -0.2784375 4.7934375 -0.5625 3.5625 C-0.706875 2.716875 -0.85125 1.87125 -1 1 C-0.67 0.67 -0.34 0.34 0 0 Z " fill="#030303" transform="translate(118,267)"/>
<path d="M0 0 C0.99 0.33 1.98 0.66 3 1 C3.73046875 2.84765625 3.73046875 2.84765625 4.1875 5.0625 C4.34605469 5.79597656 4.50460937 6.52945313 4.66796875 7.28515625 C4.77753906 7.85105469 4.88710938 8.41695312 5 9 C3.39743892 9.50512244 1.79288208 10.00391627 0.1875 10.5 C-0.70582031 10.7784375 -1.59914063 11.056875 -2.51953125 11.34375 C-5 12 -5 12 -8 12 C-8.66 9.36 -9.32 6.72 -10 4 C-8.68 4 -7.36 4 -6 4 C-6 4.99 -6 5.98 -6 7 C-5.34 7.33 -4.68 7.66 -4 8 C-4.33 6.68 -4.66 5.36 -5 4 C-4.01 3.67 -3.02 3.34 -2 3 C-2 3.99 -2 4.98 -2 6 C-1.01 6 -0.02 6 1 6 C1 5.01 1 4.02 1 3 C0.34 3 -0.32 3 -1 3 C-0.67 2.01 -0.34 1.02 0 0 Z " fill="#020202" transform="translate(380,205)"/>
<path d="M0 0 C-0.3125 1.9375 -0.3125 1.9375 -1 4 C-1.99 4.33 -2.98 4.66 -4 5 C-4.33 5.99 -4.66 6.98 -5 8 C-4.34 8 -3.68 8 -3 8 C-3.33 9.32 -3.66 10.64 -4 12 C-6 12 -6 12 -8.375 9.75 C-9.674375 8.38875 -9.674375 8.38875 -11 7 C-11.763125 6.236875 -12.52625 5.47375 -13.3125 4.6875 C-13.869375 4.130625 -14.42625 3.57375 -15 3 C-14.67 2.34 -14.34 1.68 -14 1 C-11.6015625 0.5859375 -11.6015625 0.5859375 -8.625 0.375 C-7.15933594 0.26285156 -7.15933594 0.26285156 -5.6640625 0.1484375 C-3.77831835 0.04336671 -1.88866907 0 0 0 Z " fill="#020202" transform="translate(128,200)"/>
<path d="M0 0 C1 1 1 1 1.25 3.375 C0.95068057 6.51785406 0.13535985 6.86464015 -2 9 C-1.77242269 11.16299211 -1.77242269 11.16299211 -1 13 C-2.32 13.33 -3.64 13.66 -5 14 C-5.19335938 13.43410156 -5.38671875 12.86820312 -5.5859375 12.28515625 C-5.84632813 11.55167969 -6.10671875 10.81820313 -6.375 10.0625 C-6.63023437 9.33160156 -6.88546875 8.60070312 -7.1484375 7.84765625 C-7.85271413 5.81317884 -7.85271413 5.81317884 -10 5 C-10 4.01 -10 3.02 -10 2 C-6.60379269 -0.08997373 -3.94836905 -0.2632246 0 0 Z M-4 2 C-4 3.32 -4 4.64 -4 6 C-3.34 5.67 -2.68 5.34 -2 5 C-2.33 4.01 -2.66 3.02 -3 2 C-3.33 2 -3.66 2 -4 2 Z " fill="#030303" transform="translate(311,364)"/>
<path d="M0 0 C0.6875 2.25 0.6875 2.25 1 5 C0.04701223 6.36733028 -0.95374591 7.70264493 -2 9 C-2 10.32 -2 11.64 -2 13 C-2.99 13 -3.98 13 -5 13 C-5.99 10.03 -6.98 7.06 -8 4 C-8.66 4 -9.32 4 -10 4 C-9 1 -9 1 -7.25 -0.25 C-4.47275102 -1.17574966 -2.78428335 -0.77341204 0 0 Z M-5 2 C-5 2.99 -5 3.98 -5 5 C-4.01 5 -3.02 5 -2 5 C-2 4.01 -2 3.02 -2 2 C-2.99 2 -3.98 2 -5 2 Z " fill="#020202" transform="translate(193,120)"/>
<path d="M0 0 C1.52519276 0.08937803 3.04681929 0.24537146 4.5625 0.4375 C5.80193359 0.59025391 5.80193359 0.59025391 7.06640625 0.74609375 C7.70449219 0.82988281 8.34257812 0.91367187 9 1 C9 1.99 9 2.98 9 4 C6.03 3.505 6.03 3.505 3 3 C3 3.99 3 4.98 3 6 C4.32 6 5.64 6 7 6 C7 6.66 7 7.32 7 8 C5.68 8 4.36 8 3 8 C3 8.99 3 9.98 3 11 C4.98 10.67 6.96 10.34 9 10 C9 10.99 9 11.98 9 13 C5.7 13 2.4 13 -1 13 C-1.02686553 11.02090602 -1.04633375 9.04171029 -1.0625 7.0625 C-1.07410156 5.96035156 -1.08570313 4.85820312 -1.09765625 3.72265625 C-1 1 -1 1 0 0 Z " fill="#040404" transform="translate(243,377)"/>
<path d="M0 0 C2.97 0 5.94 0 9 0 C9 0.99 9 1.98 9 3 C7.35 2.67 5.7 2.34 4 2 C4 2.99 4 3.98 4 5 C4.99 5 5.98 5 7 5 C7 5.66 7 6.32 7 7 C5.68 7 4.36 7 3 7 C3 7.99 3 8.98 3 10 C4.98 9.67 6.96 9.34 9 9 C9 10.32 9 11.64 9 13 C6.03 13 3.06 13 0 13 C0 8.71 0 4.42 0 0 Z " fill="#030303" transform="translate(249,106)"/>
<path d="M0 0 C0.99 0.66 1.98 1.32 3 2 C2.34 3.32 1.68 4.64 1 6 C2.32 5.34 3.64 4.68 5 4 C5.33 4.66 5.66 5.32 6 6 C5.67 6.66 5.34 7.32 5 8 C6.32 8.33 7.64 8.66 9 9 C8.34 10.65 7.68 12.3 7 14 C6.34 14 5.68 14 5 14 C5 13.34 5 12.68 5 12 C2.03 11.01 -0.94 10.02 -4 9 C-3.46930939 5.17902761 -2.50298434 2.93828597 0 0 Z " fill="#020202" transform="translate(362,310)"/>
<path d="M0 0 C1.32 0 2.64 0 4 0 C4.66 1.65 5.32 3.3 6 5 C6.6496875 4.01 6.6496875 4.01 7.3125 3 C7.869375 2.34 8.42625 1.68 9 1 C9.99 1 10.98 1 12 1 C12 1.99 12 2.98 12 4 C11.34 4 10.68 4 10 4 C9.71125 4.928125 9.4225 5.85625 9.125 6.8125 C8 10 8 10 6 13 C5.01 13 4.02 13 3 13 C2.86722656 12.31292969 2.73445312 11.62585938 2.59765625 10.91796875 C2.42105469 10.01691406 2.24445313 9.11585938 2.0625 8.1875 C1.88847656 7.29417969 1.71445313 6.40085937 1.53515625 5.48046875 C1.02258847 2.88602829 1.02258847 2.88602829 0 0 Z " fill="#020202" transform="translate(220,375)"/>
<path d="M0 0 C0.99 0.33 1.98 0.66 3 1 C3.33 1.99 3.66 2.98 4 4 C4.33 2.68 4.66 1.36 5 0 C7 0 7 0 8.625 1.5 C9.07875 1.995 9.5325 2.49 10 3 C10 2.34 10 1.68 10 1 C10.99 1 11.98 1 13 1 C13.33 2.65 13.66 4.3 14 6 C12.58461283 6.33872513 11.16762037 6.67074624 9.75 7 C8.96109375 7.185625 8.1721875 7.37125 7.359375 7.5625 C5 8 5 8 1 8 C0.34 5.69 -0.32 3.38 -1 1 C-0.67 0.67 -0.34 0.34 0 0 Z " fill="#020202" transform="translate(113,290)"/>
<path d="M0 0 C0.66 0.66 1.32 1.32 2 2 C1.55011719 2.40863281 1.10023438 2.81726563 0.63671875 3.23828125 C-1.1165583 5.12546013 -2.08482329 6.86807658 -3.1875 9.1875 C-3.53167969 9.90292969 -3.87585938 10.61835938 -4.23046875 11.35546875 C-4.48441406 11.89816406 -4.73835937 12.44085938 -5 13 C-4.4946875 13.48210937 -3.989375 13.96421875 -3.46875 14.4609375 C-2.8190625 15.09257812 -2.169375 15.72421875 -1.5 16.375 C-0.8503125 17.00148438 -0.200625 17.62796875 0.46875 18.2734375 C2 20 2 20 2 22 C-1.07696662 20.61502389 -3.36645782 19.00995268 -5.8125 16.6875 C-6.43769531 16.11386719 -7.06289062 15.54023438 -7.70703125 14.94921875 C-9 13 -9 13 -8.953125 10.5390625 C-7.79829779 7.46267854 -6.32731553 5.92558121 -3.9375 3.6875 C-3.20402344 2.99011719 -2.47054687 2.29273438 -1.71484375 1.57421875 C-1.14894531 1.05472656 -0.58304688 0.53523438 0 0 Z " fill="#535353" transform="translate(249,308)"/>
<path d="M0 0 C1.32 0 2.64 0 4 0 C3.67 1.32 3.34 2.64 3 4 C6.3 3.34 9.6 2.68 13 2 C13 3.65 13 5.3 13 7 C9.7 7 6.4 7 3 7 C3 7.66 3 8.32 3 9 C3.66 9 4.32 9 5 9 C5 9.66 5 10.32 5 11 C3.68 11 2.36 11 1 11 C0.67 7.37 0.34 3.74 0 0 Z " fill="#040404" transform="translate(375,227)"/>
<path d="M0 0 C1.65 0 3.3 0 5 0 C5 3.3 5 6.6 5 10 C6.98 9.34 8.96 8.68 11 8 C11 9.32 11 10.64 11 12 C6.545 12.495 6.545 12.495 2 13 C2 9.37 2 5.74 2 2 C1.34 2 0.68 2 0 2 C0 1.34 0 0.68 0 0 Z " fill="#020202" transform="translate(262,377)"/>
<path d="M0 0 C6.59316239 3.18290598 6.59316239 3.18290598 7.9296875 5.8671875 C8 8 8 8 6.3828125 10.0703125 C5.26519531 11.08738281 5.26519531 11.08738281 4.125 12.125 C1.15307645 14.7536283 1.15307645 14.7536283 -1 18 C0.65 17.34 2.3 16.68 4 16 C3.34 16.99 2.68 17.98 2 19 C0.68 19 -0.64 19 -2 19 C-1.68232368 13.59950264 1.19996327 11.47662935 5 8 C3.62845496 5.04590299 2.01136276 2.55991624 0 0 Z " fill="#3C3C3C" transform="translate(274,312)"/>
<path d="M0 0 C0.99 0.33 1.98 0.66 3 1 C2.56534864 5.92604873 0.40373025 8.51891224 -3 12 C-5.8125 13.375 -5.8125 13.375 -8 14 C-6.30551328 10.25732302 -4.01843832 7.66573877 -1.2421875 4.68359375 C0.2968542 2.94636851 0.2968542 2.94636851 0 0 Z " fill="#535353" transform="translate(281,316)"/>
<path d="M0 0 C0.66 0.66 1.32 1.32 2 2 C1.3503125 2.5878125 1.3503125 2.5878125 0.6875 3.1875 C-1.13582629 5.01796997 -1.13582629 5.01796997 -2.5625 7.625 C-4 10 -4 10 -6 11 C-5.55530671 5.96014269 -3.28656638 3.62365012 0 0 Z " fill="#4C4C4C" transform="translate(249,308)"/>
<path d="" fill="#FFFFFF" transform="translate(0,0)"/>
<path d="" fill="#FFFFFF" transform="translate(0,0)"/>
<path d="" fill="#FFFFFF" transform="translate(0,0)"/>
<path d="" fill="#FFFEFF" transform="translate(0,0)"/>
<path d="" fill="#FFFFFF" transform="translate(0,0)"/>
<path d="" fill="#FFFFFF" transform="translate(0,0)"/>
<path d="" fill="#FFFFFF" transform="translate(0,0)"/>
<path d="" fill="#FFFFFF" transform="translate(0,0)"/>
<path d="" fill="#FFFFFF" transform="translate(0,0)"/>
<path d="" fill="#FFFFFF" transform="translate(0,0)"/>
<path d="" fill="#FFFFFF" transform="translate(0,0)"/>
<path d="" fill="#FFFFFF" transform="translate(0,0)"/>
<path d="" fill="#FFFFFF" transform="translate(0,0)"/>
<path d="" fill="#FFFFFF" transform="translate(0,0)"/>
<path d="" fill="#FFFFFF" transform="translate(0,0)"/>
<path d="" fill="#FFFFFF" transform="translate(0,0)"/>
<path d="" fill="#FFFFFF" transform="translate(0,0)"/>
<path d="" fill="#FFFFFF" transform="translate(0,0)"/>
<path d="" fill="#FFFFFF" transform="translate(0,0)"/>
<path d="" fill="#FFFFFF" transform="translate(0,0)"/>
<path d="" fill="#FFFFFF" transform="translate(0,0)"/>
<path d="" fill="#FFFFFF" transform="translate(0,0)"/>
<path d="" fill="#FFFFFF" transform="translate(0,0)"/>
<path d="" fill="#FFFFFF" transform="translate(0,0)"/>
<path d="" fill="#FFFFFF" transform="translate(0,0)"/>
<path d="" fill="#FFFFFF" transform="translate(0,0)"/>
<path d="" fill="#FFFFFF" transform="translate(0,0)"/>
<path d="" fill="#FFFFFF" transform="translate(0,0)"/>
<path d="" fill="#FFFFFF" transform="translate(0,0)"/>
<path d="" fill="#FFFFFF" transform="translate(0,0)"/>
<path d="" fill="#FFFFFF" transform="translate(0,0)"/>
<path d="" fill="#FFFFFF" transform="translate(0,0)"/>
<path d="" fill="#FFFFFF" transform="translate(0,0)"/>
<path d="" fill="#FFFFFF" transform="translate(0,0)"/>
<path d="" fill="#FFFFFF" transform="translate(0,0)"/>
<path d="" fill="#FFFFFF" transform="translate(0,0)"/>
<path d="" fill="#FFFFFF" transform="translate(0,0)"/>
<path d="" fill="#FFFFFF" transform="translate(0,0)"/>
<path d="" fill="#FFFFFF" transform="translate(0,0)"/>
<path d="" fill="#FFFFFF" transform="translate(0,0)"/>
<path d="" fill="#FFFFFF" transform="translate(0,0)"/>
<path d="" fill="#FFFFFF" transform="translate(0,0)"/>
<path d="" fill="#FFFFFF" transform="translate(0,0)"/>
<path d="" fill="#FFFFFF" transform="translate(0,0)"/>
<path d="" fill="#FFFFFF" transform="translate(0,0)"/>
<path d="" fill="#FFFFFF" transform="translate(0,0)"/>
<path d="" fill="#FFFFFF" transform="translate(0,0)"/>
<path d="" fill="#FFFFFF" transform="translate(0,0)"/>
<path d="" fill="#FFFFFF" transform="translate(0,0)"/>
<path d="" fill="#FFFFFF" transform="translate(0,0)"/>
<path d="" fill="#FFFFFF" transform="translate(0,0)"/>
<path d="" fill="#FFFFFF" transform="translate(0,0)"/>
<path d="" fill="#FFFFFF" transform="translate(0,0)"/>
<path d="" fill="#FFFFFF" transform="translate(0,0)"/>
<path d="" fill="#FFFFFF" transform="translate(0,0)"/>
<path d="" fill="#FFFFFF" transform="translate(0,0)"/>
<path d="" fill="#FFFFFF" transform="translate(0,0)"/>
<path d="" fill="#FFFFFF" transform="translate(0,0)"/>
<path d="" fill="#FFFFFF" transform="translate(0,0)"/>
<path d="" fill="#FFFFFF" transform="translate(0,0)"/>
<path d="" fill="#FFFFFF" transform="translate(0,0)"/>
<path d="" fill="#FFFFFF" transform="translate(0,0)"/>
<path d="" fill="#FFFFFF" transform="translate(0,0)"/>
<path d="" fill="#FFFFFF" transform="translate(0,0)"/>
<path d="" fill="#FFFFFF" transform="translate(0,0)"/>
<path d="" fill="#FFFFFF" transform="translate(0,0)"/>
<path d="" fill="#FFFFFF" transform="translate(0,0)"/>
<path d="" fill="#FFFFFF" transform="translate(0,0)"/>
<path d="" fill="#FFFFFF" transform="translate(0,0)"/>
<path d="" fill="#FFFFFF" transform="translate(0,0)"/>
<path d="" fill="#FFFFFF" transform="translate(0,0)"/>
<path d="" fill="#FFFFFF" transform="translate(0,0)"/>
<path d="" fill="#FFFFFF" transform="translate(0,0)"/>
<path d="" fill="#FFFFFF" transform="translate(0,0)"/>
<path d="" fill="#FFFFFF" transform="translate(0,0)"/>
<path d="" fill="#FFFFFF" transform="translate(0,0)"/>
<path d="" fill="#FFFFFF" transform="translate(0,0)"/>
<path d="" fill="#FFFFFF" transform="translate(0,0)"/>
</svg>
